<?xml version="1.0" encoding="utf-8"?>
<!-- Generator: Adobe Illustrator 21.1.0, SVG Export Plug-In . SVG Version: 6.00 Build 0)  -->
<svg version="1.1" id="Layer_1" xmlns="http://www.w3.org/2000/svg" xmlns:xlink="http://www.w3.org/1999/xlink" x="0px" y="0px"
	 viewBox="0 0 128 128" style="enable-background:new 0 0 128 128;" xml:space="preserve">
<style type="text/css">
	.st0{fill:#FFC24A;}
	.st1{fill:#FFA712;}
	.st2{fill:#F4BD62;}
	.st3{fill:#FFA50E;}
	.st4{fill:#F6820C;}
	.st5{fill:#FDE068;}
	.st6{fill:#FCCA3F;}
	.st7{fill:#EEAB37;}
	.st8{opacity:0.55;}
</style>
<g>
	<path class="st0" d="M29.6,77.2l0.6-0.8L57.2,25l0.1-0.5L45.3,2.1c-1-1.9-3.8-1.4-4.1,0.7L29.6,77.2z"/>
	<g>
		<g>
			<path id="path-1" class="st1" d="M29.9,76.6l0.4-0.8l26.8-50.8L45.2,2.4c-1-1.9-3.5-1.4-3.8,0.7L29.9,76.6z"/>
		</g>
	</g>
	<path class="st2" d="M66,41.4l8.9-9.1l-8.9-17c-0.8-1.6-3.2-1.6-4,0l-4.7,9.1v0.8L66,41.4z"/>
	<g>
		<g>
			<path id="path-3" class="st3" d="M65.8,41.1l8.6-8.8l-8.6-16.4c-0.8-1.6-2.8-1.7-3.6-0.2l-4.8,9.2l-0.1,0.5L65.8,41.1z"/>
		</g>
	</g>
	<polygon class="st4" points="29.6,77.2 29.8,76.9 30.8,76.5 65.4,42 65.9,40.8 57.2,24.4 	"/>
	<path class="st5" d="M67.1,94.6l31.3-17.5L89.5,22c-0.3-1.7-2.4-2.4-3.6-1.2L29.6,77.2l31.2,17.4C62.7,95.7,65.1,95.7,67.1,94.6"/>
	<path class="st6" d="M98.1,77l-8.9-54.7c-0.3-1.7-2-2.4-3.3-1.2l-56.1,56l30.8,17.2c2,1.1,4.3,1.1,6.3,0L98.1,77z"/>
	<path class="st7" d="M67.1,94.1c-2,1.1-4.4,1.1-6.3,0L29.8,76.9l-0.3,0.3l31.2,17.4c2,1.1,4.4,1.1,6.3,0l31.3-17.5l-0.1-0.5
		L67.1,94.1z"/>
</g>
<g class="st8">
	<path d="M60.6,125.3c0,0.8,0,1.4,0,2.1c-0.9,0-1.8,0-2.7,0c0-7.4,0-14.8,0-22.3c0.9,0,1.8,0,2.8,0c0,3,0,5.9,0,9
		c0.5-0.5,0.9-0.9,1.4-1.3c2.6-1.9,6.1-1.6,8.6,0.7c4.1,3.8,3.3,11-1.5,13.7c-2.7,1.5-6.1,0.8-8.2-1.5
		C60.9,125.5,60.9,125.5,60.6,125.3z M60.5,119.7c0.2,0.8,0.3,1.7,0.6,2.4c1.3,3.4,5.8,4.1,8.1,1.2c1.6-2,1.6-5.4,0-7.4
		c-1.7-2.2-4.9-2.5-6.9-0.6C61.1,116.6,60.7,118.1,60.5,119.7z"/>
	<path d="M88.2,127.3c-0.9,0-1.7,0-2.7,0c0-0.6,0-1.3,0-1.9c-0.1,0-0.1,0-0.2-0.1c-0.2,0.2-0.5,0.5-0.7,0.7
		c-2.2,2.4-6.7,2.3-8.9-0.1c-2.2-2.5-1.3-6.4,1.8-7.8c2.4-1.1,4.8-1.1,7.2-0.2c0.1,0,0.2,0.1,0.4,0.1c0,0,0.1,0,0.1,0
		c0.4-1.2-0.4-2.8-1.8-3.5c-2-1-4.2-0.4-5.8,1.7c-0.8-0.3-1.7-0.7-2.7-1.2c0.6-0.7,1.1-1.4,1.6-2c2.3-2.4,7.5-2.3,9.9,0.2
		c1.1,1.2,1.7,2.6,1.7,4.1c0,3.1,0,6.2,0,9.3C88.3,127,88.3,127.1,88.2,127.3z M85.5,120.8c-1.4-1.2-4.7-1.4-6.3-0.4
		c-0.5,0.3-0.9,0.7-1.2,1.2c-0.7,1.1-0.4,2.4,0.8,3.1c1.4,0.8,2.9,0.7,4.3-0.1C84.5,123.7,85.5,122.6,85.5,120.8z"/>
	<path d="M55.8,120.2c-2,0-4,0-6,0c-2,0-3.9,0-5.9,0c-0.3,1.9,1.1,3.9,2.9,4.6c1.2,0.5,2.3,0.5,3.5,0.1c1.2-0.4,2-1.2,2.5-2.4
		c0.9,0.4,1.7,0.7,2.6,1.1c-0.4,0.6-0.6,1.1-1,1.5c-3.5,4.3-10.7,3.3-12.8-1.9c-1.2-3-1.1-5.9,0.8-8.6c1.9-2.8,4.9-3.8,8.2-2.9
		c2.8,0.7,4.9,3.3,5.2,6.4c0.1,0.5,0.1,1,0.1,1.5C55.9,119.9,55.8,120,55.8,120.2z M52.7,117.8c0.1-2-2-3.6-4.4-3.6
		c-2.1,0-4.2,1.9-4.1,3.6C47,117.8,49.9,117.8,52.7,117.8z"/>
	<path d="M118.7,120.2c-4.2,0-8.1,0-12.1,0c-0.3,1.7,1,3.8,2.8,4.6c1.1,0.5,2.3,0.5,3.5,0.2c0.9-0.3,1.3-0.6,2.7-2.4
		c0.8,0.3,1.6,0.7,2.5,1c-0.5,1.2-1.3,2.1-2.2,2.8c-4.1,3.1-10.4,1-11.8-4c-0.9-3.3-0.5-6.3,2-8.8c2.1-2.1,4.6-2.5,7.4-1.8
		c2.6,0.7,4.2,2.5,4.9,5C118.5,117.9,118.5,119,118.7,120.2z M106.8,117.8c2.9,0,5.8,0,8.6,0c-0.2-2.1-1.9-3.5-4.2-3.5
		C109,114.2,107.1,115.7,106.8,117.8z"/>
	<path d="M23.2,115.1c0,1,0,1.8,0,2.8c-3,0-6,0-9.1,0c0,3.2,0,6.4,0,9.5c-1,0-1.9,0-2.8,0c0-7.4,0-14.8,0-22.3c4.3,0,8.6,0,12.9,0
		c0,0.9,0,1.7,0,2.7c-3.3,0-6.7,0-10,0c0,2.5,0,4.8,0,7.3C17.2,115.1,20.2,115.1,23.2,115.1z"/>
	<path d="M102.3,115.1c-0.9,0.4-1.7,0.7-2.5,1c-0.3-0.4-0.6-0.8-0.9-1.1c-1.1-1.1-3.8-1.2-5-0.2c-0.9,0.7-0.9,2,0.1,2.5
		c0.6,0.4,1.4,0.5,2.1,0.7c1.2,0.3,2.4,0.6,3.5,1c1.6,0.6,2.6,1.8,2.8,3.6c0.2,1.8-0.7,3.2-2.2,4.2c-3.5,2.2-8.6,0.7-10.3-3
		c0-0.1-0.1-0.2-0.1-0.4c0.8-0.3,1.6-0.7,2.5-1c0.3,0.4,0.5,0.9,0.8,1.3c1.1,1.5,3.6,2.1,5.2,1.2c0.7-0.4,1.2-0.9,1.2-1.8
		c0-0.8-0.5-1.4-1.2-1.7c-1-0.4-2.1-0.6-3.1-0.9c-1.2-0.3-2.3-0.7-3.3-1.4c-1.9-1.4-2.2-3.9-0.6-5.7c2.4-2.8,8.1-2.6,10.3,0.4
		C101.8,114.3,102,114.7,102.3,115.1z"/>
	<path d="M32.3,112.1c0.9,0,1.7,0,2.7,0c0,0.7,0,1.4,0,2.2c0.1,0,0.1,0.1,0.2,0.1c0.6-1.2,1.6-1.9,2.8-2.4c1.2-0.5,2.5-0.4,3.8,0.1
		c-0.4,0.9-0.7,1.8-1.1,2.6c-0.2,0-0.4,0-0.5,0c-2.8-0.4-5,1.3-5,4.2c0,2.5,0,5,0,7.5c0,0.3,0,0.6,0,0.9c-1,0-1.9,0-2.9,0
		C32.3,122.3,32.3,117.2,32.3,112.1z"/>
	<path d="M29.2,127.3c-1,0-1.9,0-2.8,0c0-5.1,0-10.1,0-15.2c1,0,1.8,0,2.8,0C29.2,117.2,29.2,122.2,29.2,127.3z"/>
	<path d="M27.8,104.8c1.1,0,2.1,0.9,2,2.1c0,1.1-0.9,2-2,2c-1.1,0-2.1-0.9-2-2.1C25.7,105.7,26.6,104.8,27.8,104.8z"/>
</g>
</svg>
