<?xml version="1.0" encoding="utf-8"?>
<!-- Generator: Adobe Illustrator 21.1.0, SVG Export Plug-In . SVG Version: 6.00 Build 0)  -->
<svg version="1.1" id="Layer_1" xmlns="http://www.w3.org/2000/svg" xmlns:xlink="http://www.w3.org/1999/xlink" x="0px" y="0px"
	 viewBox="0 0 128.2 128.2" style="enable-background:new 0 0 128.2 128.2;" xml:space="preserve">
<style type="text/css">
	.st0{fill:#F0DB4F;}
	.st1{fill:#323330;}
</style>
<g>
	<rect x="1.2" y="1.2" class="st0" width="125.7" height="125.7"/>
	<g>
		<path class="st1" d="M48.9,115.6c-4.2,0-7.7-0.8-10.5-2.4c-2.8-1.6-5.2-3.4-7-5.7l7.4-8.2c1.5,1.7,3,3,4.6,3.9
			c1.5,1,3.3,1.4,5.2,1.4c2.2,0,4-0.7,5.3-2.1c1.3-1.4,1.9-3.7,1.9-6.8V61.2h12.1v35.1c0,3.2-0.4,6-1.3,8.3s-2.1,4.3-3.8,6
			c-1.6,1.6-3.6,2.9-6,3.7C54.5,115.2,51.8,115.6,48.9,115.6z"/>
		<path class="st1" d="M76.8,61.3h19.5c3.2,0,6.1,0.5,8.6,1.4c2.6,0.9,4.6,2.2,6.4,3.8s3.1,3.6,4.1,5.8c1,2.2,1.4,4.8,1.4,7.5v0.2
			c0,3.1-0.6,5.8-1.7,8.2c-1.1,2.3-2.6,4.3-4.6,5.9s-4.2,2.8-6.9,3.6c-2.6,0.8-5.4,1.2-8.5,1.2h-6.6v16.1H76.9L76.8,61.3L76.8,61.3z
			 M95.6,88.3c3,0,5.3-0.8,6.9-2.3c1.6-1.5,2.5-3.5,2.5-5.8v-0.2c0-2.6-0.9-4.6-2.6-6.1c-1.7-1.4-4.1-2.1-7-2.1h-6.7v16.4L95.6,88.3
			L95.6,88.3z"/>
	</g>
</g>
</svg>
