<?xml version="1.0" encoding="utf-8"?>
<!-- Generator: Adobe Illustrator 21.1.0, SVG Export Plug-In . SVG Version: 6.00 Build 0)  -->
<svg version="1.1" id="Layer_1" xmlns="http://www.w3.org/2000/svg" xmlns:xlink="http://www.w3.org/1999/xlink" x="0px" y="0px"
	 viewBox="0 0 128.2 128.2" style="enable-background:new 0 0 128.2 128.2;" xml:space="preserve">
<style type="text/css">
	.st0{fill:#784BBC;}
	.st1{fill:#313131;}
</style>
<g>
	<path class="st0" d="M87,30.4c-1.7-0.5-3.4-1-5.1-1.5c-0.6-0.2-0.5-0.6-0.6-1c-0.8-5.2-2.6-10-6-14.1c-2.3-2.9-5.2-4.9-9-5.5
		c-2.6-0.4-5.1,0-7.6,0.7c-4.7,1.4-8.4,4.1-10.9,8.4c-2.3,3.9-3.8,8.2-4.3,12.7c-1,9,0.4,17.5,4.7,25.5c0.1,0.2,0.3,0.5,0.4,0.7
		c0.3,0.7,0.7,0.9,1.5,0.8c3.1,0,5.7,2.1,6.3,5.1c0.7,3.1-1.1,6.2-4.1,7.3c-2.9,1.1-6.2-0.2-7.7-3c-0.9-1.7-1.1-3.6-0.3-5.4
		c0.3-0.7,0.2-1.2-0.1-1.9c-2.7-4.8-4.7-9.9-5.7-15.4c-1.7-9-0.9-17.7,3-26.1c3-6.5,7.8-11.4,14.6-13.8c8.1-2.9,15.4-1.2,21.7,4.6
		c4.1,3.8,6.5,8.7,8,14c0.6,2.1,0.9,4.2,1.2,6.3C87.1,29.4,87.2,29.9,87,30.4z"/>
	<path class="st0" d="M70.2,83.7c1.4-1.1,2.7-2,3.8-3.1c0.9-0.9,1.6-0.9,2.8-0.5c3.3,1.3,6.8,1.9,10.3,1.8c7.6-0.2,14-5,15.9-12.1
		c1-3.8,0.4-7.5-1.1-11.1c-2.6-6-6.8-10.6-12.2-14.1c-5.5-3.6-11.5-5.8-18.1-6.7c-2.2-0.3-4.5-0.4-6.7-0.3c-0.6,0-0.9,0.2-1.2,0.7
		c-1.1,1.9-2.8,2.9-5,3.2c-3.3,0.4-6.6-2.4-6.8-5.7c-0.2-3,1.3-5.5,4-6.6c2.7-1,5.7-0.2,7.5,2.3c0.4,0.6,0.9,0.6,1.5,0.6
		c5.3-0.1,10.6,0.6,15.7,2.1c9.8,3,17.7,8.5,23.5,16.9c2.9,4.2,4.5,8.9,4.8,14c0.4,7.6-2.8,13.4-9,17.6c-3.7,2.5-7.8,3.9-12.3,4.3
		C81.5,87.6,75.8,86.3,70.2,83.7z"/>
	<path class="st0" d="M32.9,42.3c0.5,1.8,0.9,3.5,1.4,5.2c0.2,0.6-0.2,0.9-0.6,1.2c-1.5,1.2-2.9,2.6-4.1,4.1c-2.3,2.9-4,6-4.7,9.7
		c-1.3,7,2.7,16.2,11.8,18.3c4.9,1.2,9.8,1,14.5-0.5c9.7-3.2,17.8-8.7,23.4-17.4c0.4-0.6,0.7-1.2,1.1-1.8c0.4-0.7,0.4-1.2-0.1-1.9
		c-2.1-2.9-1.4-7,1.7-9c2.2-1.4,4.5-1.5,6.7-0.2c2.2,1.3,3.3,3.4,3.1,6c-0.2,2.7-1.7,4.6-4.3,5.4c-1,0.3-1.5,0.9-2,1.7
		c-6.8,12.6-17.3,20.1-31.2,23c-5.1,1.1-10.1,1-15.1-0.5c-2.9-0.9-5.5-2.2-7.8-4.1c-3.9-3.2-5.9-7.4-6.7-12.3
		c-1.2-7.9,1.1-14.8,6.1-20.9c1.7-2.1,3.7-3.9,5.8-5.5C32.3,42.7,32.6,42.6,32.9,42.3z"/>
</g>
<g>
	<path class="st1" d="M33.3,116.1c0.1,0.1,0.2,0.2,0.3,0.3c0.6,0.4,1.1,0.9,1.4,1.5c1.6,2.7,3.3,5.3,4.9,8c0.1,0.1,0.1,0.2,0.1,0.3
		c-0.1,0.1-0.2,0.1-0.4,0.1c-1.5,0-3.1,0-4.6,0c-1,0-1.8-0.4-2.3-1.3c-1.2-2.2-2.5-4.4-3.7-6.5c-0.4-0.8-1.1-1.2-2-1.1
		c-0.3,0-0.6,0-0.9,0c-0.3,0-0.4,0.1-0.4,0.4c0,1.2,0,2.5,0,3.7c0,1.5,0,2.9,0,4.4c0,0.5,0,0.5-0.5,0.5c-1.6,0-3.2,0-4.7,0
		c-0.4,0-0.4,0-0.4-0.5c0-2.2,0-4.4,0-6.5c0-5.5,0-11,0-16.5c0-0.1,0-0.2,0-0.3c0-0.7,0-0.6,0.6-0.6c2.5,0,5.1,0,7.6,0
		c1.8,0,3.6,0.2,5.3,0.9c0.5,0.2,1,0.5,1.5,0.8c1.8,1.2,2.6,2.9,2.7,5c0.2,3.4-1.3,5.8-4.4,7.3C33.4,115.9,33.3,115.9,33.3,116.1z
		 M25.9,109.7c0,1.1,0,2.2,0,3.2c0,0.2,0,0.4,0.3,0.4c1,0,2.1,0.1,3.1-0.1c1.2-0.2,2.2-0.8,2.8-1.9c0.4-0.9,0.5-1.8,0.2-2.7
		c-0.3-1.3-1.2-2-2.5-2.3c-1.2-0.3-2.4-0.1-3.6-0.2c-0.3,0-0.3,0.2-0.3,0.4C25.9,107.6,25.9,108.7,25.9,109.7z"/>
	<path class="st1" d="M67.9,124.1c-0.2,0.1-0.3,0.3-0.5,0.4c-1.3,1.2-2.9,1.9-4.7,1.9c-1.9,0-3.4-0.7-4.6-2.2
		c-0.9-1.2-1.4-2.6-1.7-4.1c-0.3-1.9-0.3-3.7,0.2-5.6c0.4-1.4,1-2.7,2-3.8c1.8-2,4.1-2.6,6.7-2c0.8,0.2,1.5,0.6,2.2,1.1
		c0.1-0.2,0.1-0.4,0.1-0.6c0-2.4,0-4.8,0-7.2c0-0.1,0-0.2,0-0.3c0-0.5,0-0.5,0.5-0.5c1.4,0,2.8,0,4.2,0c0.5,0,0.5,0,0.5,0.5
		c0,3.4,0,6.9,0,10.3c0,4.5,0,9,0,13.4c0,0.1,0,0.3,0,0.4c0,0.2-0.1,0.3-0.3,0.3c-1,0-2,0-3,0c-0.6,0-1-0.3-1.2-0.9
		C68.1,124.9,68.1,124.5,67.9,124.1z M67.6,117.2c0-1-0.1-1.9,0-2.9c0.1-0.8-0.3-1.1-0.9-1.5c-0.3-0.2-0.6-0.3-1-0.4
		c-1.7-0.3-2.9,0.2-3.6,1.9c-0.1,0.3-0.2,0.6-0.3,0.9c-0.3,1.3-0.3,2.6-0.2,3.9c0.1,0.7,0.2,1.4,0.5,2c0.5,1,1.3,1.5,2.4,1.4
		c1.1-0.1,2-0.5,2.7-1.3c0.2-0.2,0.3-0.4,0.3-0.7C67.6,119.4,67.6,118.3,67.6,117.2z"/>
	<path class="st1" d="M86.3,124.4c-0.3,0.2-0.4,0.4-0.6,0.5c-1.7,1.4-3.8,1.9-5.9,1.4c-2.1-0.5-3.4-1.9-4-3.9
		c-0.2-0.8-0.3-1.7-0.3-2.5c0-3.5,0-7,0-10.4c0-0.5-0.1-0.5,0.5-0.5c1.4,0,2.7,0,4.1,0c0.6,0,0.5,0.1,0.5,0.5c0,3.4,0,6.9,0,10.3
		c0,0.4,0,0.8,0.1,1.3c0.3,1,1,1.5,2,1.5c1.2,0.1,2.1-0.5,3-1.2c0.2-0.2,0.2-0.4,0.2-0.6c0-1.4,0-2.7,0-4.1c0-2.4,0-4.7,0-7.1
		c0-0.1,0-0.3,0-0.4c0-0.2,0.1-0.3,0.3-0.3c0.1,0,0.2,0,0.2,0c1.4,0,2.7,0,4.1,0c0.5,0,0.5,0,0.5,0.5c0,1.5,0,3,0,4.5
		c0,3.8,0,7.6,0,11.5c0,0.1,0,0.2,0,0.3c0,0.4,0,0.4-0.5,0.4c-0.9,0-1.8,0-2.7,0c-0.8,0-1.2-0.3-1.4-1.1
		C86.5,124.9,86.4,124.7,86.3,124.4z"/>
	<path class="st1" d="M44.1,118.5c-0.1,2.1,1.4,3.8,3.4,4c1.1,0.1,2.1-0.1,3.1-0.6c0.4-0.2,0.7-0.4,1.1-0.6c0.3-0.1,0.6-0.2,0.9-0.2
		c0.4,0,0.7,0.1,1,0.4c0.4,0.5,0.9,1.1,1.3,1.6c0.2,0.2,0.2,0.3,0,0.5c-0.8,0.9-1.8,1.5-2.9,1.9c-2.3,0.9-4.7,1.1-7.1,0.4
		c-3.2-0.9-5-3.1-5.7-6.3c-0.4-2-0.4-4,0.3-5.9c1.2-3.1,3.5-4.8,6.7-5.2c1.2-0.2,2.4-0.1,3.6,0.2c2.9,0.8,4.5,2.7,5.2,5.6
		c0.2,0.9,0.3,1.9,0.2,2.8c-0.1,0.9-0.3,1.1-1.2,1.1c-1.8,0-3.6,0-5.4,0c-1.3,0-2.5,0-3.8,0C44.5,118.5,44.3,118.5,44.1,118.5z
		 M50.5,115.4c0-1.9-1.1-3.2-2.9-3.2c-1.9,0-3.4,1.3-3.4,3.2C46.3,115.4,48.4,115.4,50.5,115.4z"/>
	<path class="st1" d="M92.3,108.9c0.8,0,1.5,0,2.3,0c0.8,0,1.7,0,2.5,0c0.7,0,1.2,0.2,1.6,0.9c0.8,1.4,1.7,2.9,2.6,4.3
		c0.1,0.2,0.2,0.3,0.3,0.5c0.8-1.4,1.6-2.9,2.5-4.3c0.1-0.3,0.3-0.5,0.4-0.7c0.2-0.3,0.5-0.5,0.9-0.5c1.6,0,3.2,0,4.8,0
		c-0.1,0.3-0.2,0.4-0.3,0.6c-1.6,2.4-3.2,4.8-4.9,7.1c-0.2,0.3-0.2,0.5,0,0.9c1.7,2.7,3.4,5.4,5.1,8.1c0.1,0.2,0.2,0.4,0.4,0.6
		c-0.2,0.2-0.3,0.1-0.5,0.1c-1.3,0-2.7,0-4,0c-1,0-1.6-0.3-2.1-1.2c-0.8-1.5-1.7-2.9-2.6-4.4c-0.1-0.2-0.2-0.4-0.4-0.5
		c-0.4,0.8-0.8,1.5-1.3,2.2c-0.5,0.9-1.1,1.8-1.6,2.7c-0.2,0.3-0.4,0.5-0.6,0.8c-0.2,0.2-0.5,0.3-0.8,0.3c-1.5,0-3.1,0-4.7,0
		c0-0.3,0.2-0.4,0.3-0.6c1.7-2.6,3.4-5.2,5.1-7.8c0.3-0.4,0.3-0.7,0-1.1c-1.6-2.4-3.2-4.8-4.8-7.2C92.5,109.4,92.4,109.2,92.3,108.9
		z"/>
</g>
</svg>
