<?xml version="1.0" encoding="utf-8"?>
<!-- Generator: Adobe Illustrator 21.1.0, SVG Export Plug-In . SVG Version: 6.00 Build 0)  -->
<svg version="1.1" id="twitter" xmlns="http://www.w3.org/2000/svg" xmlns:xlink="http://www.w3.org/1999/xlink" x="0px" y="0px"
	 viewBox="0 0 128 128" enable-background="new 0 0 128 128" xml:space="preserve">
<path id="original" d="M40.582,115.297c47.638,0,73.69-39.467,73.69-73.69c0-1.122-0.023-2.238-0.074-3.348
	c5.057-3.656,9.453-8.217,12.92-13.41c-4.641,2.061-9.635,3.451-14.874,4.077c5.347-3.206,9.453-8.279,11.389-14.327
	c-5.005,2.967-10.546,5.125-16.445,6.287c-4.726-5.034-11.457-8.183-18.905-8.183c-14.304,0-25.903,11.599-25.903,25.898
	c0,2.033,0.228,4.009,0.672,5.905C41.527,43.424,22.44,33.117,9.668,17.446C7.441,21.273,6.16,25.72,6.16,30.464
	c0,8.986,4.573,16.918,11.525,21.558c-4.248-0.131-8.24-1.298-11.73-3.24c-0.006,0.108-0.006,0.217-0.006,0.33
	c0,12.545,8.929,23.016,20.778,25.391c-2.175,0.592-4.464,0.911-6.827,0.911c-1.668,0-3.291-0.165-4.869-0.467
	c3.297,10.29,12.858,17.778,24.195,17.989c-8.866,6.947-20.033,11.087-32.167,11.087c-2.09,0-4.151-0.12-6.178-0.359
	C12.344,111.009,25.954,115.297,40.582,115.297"/>
</svg>
