<?xml version="1.0" encoding="utf-8"?>
<!-- Generator: Adobe Illustrator 21.1.0, SVG Export Plug-In . SVG Version: 6.00 Build 0)  -->
<svg version="1.1" id="twitter" xmlns="http://www.w3.org/2000/svg" xmlns:xlink="http://www.w3.org/1999/xlink" x="0px" y="0px"
	 viewBox="0 0 128 128" style="enable-background:new 0 0 128 128;" xml:space="preserve">
<style type="text/css">
	.st0{fill:#FFFFFF;}
</style>
<path id="original" class="st0" d="M40.6,115.3c47.6,0,73.7-39.5,73.7-73.7c0-1.1,0-2.2-0.1-3.3c5.1-3.7,9.5-8.2,12.9-13.4
	c-4.6,2.1-9.6,3.5-14.9,4.1c5.3-3.2,9.5-8.3,11.4-14.3c-5,3-10.5,5.1-16.4,6.3c-4.7-5-11.5-8.2-18.9-8.2
	c-14.3,0-25.9,11.6-25.9,25.9c0,2,0.2,4,0.7,5.9C41.5,43.4,22.4,33.1,9.7,17.4c-2.2,3.8-3.5,8.3-3.5,13c0,9,4.6,16.9,11.5,21.6
	c-4.2-0.1-8.2-1.3-11.7-3.2c0,0.1,0,0.2,0,0.3c0,12.5,8.9,23,20.8,25.4c-2.2,0.6-4.5,0.9-6.8,0.9c-1.7,0-3.3-0.2-4.9-0.5
	c3.3,10.3,12.9,17.8,24.2,18c-8.9,6.9-20,11.1-32.2,11.1c-2.1,0-4.2-0.1-6.2-0.4C12.3,111,26,115.3,40.6,115.3"/>
</svg>
